<?xml version="1.0" encoding="UTF-8" standalone="no"?>
<svg
   xmlns:dc="http://purl.org/dc/elements/1.1/"
   xmlns:cc="http://creativecommons.org/ns#"
   xmlns:rdf="http://www.w3.org/1999/02/22-rdf-syntax-ns#"
   xmlns:svg="http://www.w3.org/2000/svg"
   xmlns="http://www.w3.org/2000/svg"
   viewBox="0 0 1200 1200"
   version="1.1"
   id="svg48"
   width="1200"
   height="1200">
  <metadata
     id="metadata54">
    <rdf:RDF>
      <cc:Work
         rdf:about="">
        <dc:format>image/svg+xml</dc:format>
        <dc:type
           rdf:resource="http://purl.org/dc/dcmitype/StillImage" />
        <dc:title></dc:title>
      </cc:Work>
    </rdf:RDF>
  </metadata>
  <defs
     id="defs52" />
  <g
     transform="matrix(0.8685244,0,0,0.8685244,1011.0499,498.93283)"
     id="g46">
    <path
       transform="matrix(18.312,0,0,18.312,396.28,-309.56)"
       d="m -22.855,28.257 c 0,13.668 -11.08,24.749 -24.749,24.749 -13.669,0 -24.749,-11.08 -24.749,-24.749 0,-13.669 11.08,-24.749 24.749,-24.749 13.669,0 24.749,11.08 24.749,24.749 z"
       fill="none"
       stroke="#000000"
       stroke-width="4"
       id="path2" />
    <g
       transform="matrix(18.312,0,0,18.312,396.28,-17699)"
       id="g8">
      <path
         transform="translate(0,949.6)"
         d="m -51.392,-9.371 h 7.3236 a 1.2627,1.2627 0 0 1 1.2627,1.2627 v 5.8084 a 1.2627,1.2627 0 0 1 -1.2627,1.2627 h -7.3236 a 1.2627,1.2627 0 0 1 -1.2627,-1.2627 v -5.8084 a 1.2627,1.2627 0 0 1 1.2627,-1.2627"
         id="path4" />
      <path
         transform="translate(0,949.6)"
         d="m -49.624,-1.2267 h 3.7881 v 2.9042 h -3.7881 z"
         id="path6" />
    </g>
    <g
       transform="matrix(9.1687,-9.1687,9.1687,9.1687,-9079.2,-9297.1)"
       id="g14">
      <path
         transform="translate(0,949.6)"
         d="m -51.392,-9.371 h 7.3236 a 1.2627,1.2627 0 0 1 1.2627,1.2627 v 5.8084 a 1.2627,1.2627 0 0 1 -1.2627,1.2627 h -7.3236 a 1.2627,1.2627 0 0 1 -1.2627,-1.2627 v -5.8084 a 1.2627,1.2627 0 0 1 1.2627,-1.2627"
         id="path10" />
      <path
         transform="translate(0,949.6)"
         d="m -49.624,-1.2267 h 3.7881 v 2.9042 h -3.7881 z"
         id="path12" />
    </g>
    <path
       transform="matrix(1.4389,0,0,1.4389,-406.93,167.22)"
       d="m -22.855,28.257 a 24.749,24.749 0 1 1 -49.497,0 24.749,24.749 0 1 1 49.497,0 z"
       fill="none"
       stroke="#000000"
       stroke-width="25.453"
       id="path16" />
    <path
       d="m -488.89,156.58 6.9578,-253.53 6.7921,-13.013 6.5712,13.013 6.5002,253.53 z"
       stroke="#000000"
       stroke-width="14.136"
       id="path18" />
    <path
       d="m -475.31,-186.47 v 44.106"
       fill="none"
       stroke="#000000"
       stroke-width="9.1559"
       id="path20" />
    <path
       d="m -81.601,207.24 h -44.105"
       fill="none"
       stroke="#000000"
       stroke-width="9.1559"
       id="path22" />
    <path
       d="M -475.31,600.95 V 556.845"
       fill="none"
       stroke="#000000"
       stroke-width="9.1559"
       id="path24" />
    <path
       d="m -869.03,207.24 h 44.105"
       fill="none"
       stroke="#000000"
       stroke-width="9.1559"
       id="path26" />
    <path
       d="m -278.46,-133.72 -22.053,38.196"
       fill="none"
       stroke="#000000"
       stroke-width="9.1559"
       id="path28" />
    <path
       d="m -134.35,10.384 -38.196,22.053"
       fill="none"
       stroke="#000000"
       stroke-width="9.1559"
       id="path30" />
    <path
       d="m -134.35,404.1 -38.196,-22.053"
       fill="none"
       stroke="#000000"
       stroke-width="9.1559"
       id="path32" />
    <path
       d="m -278.46,548.21 -22.053,-38.197"
       fill="none"
       stroke="#000000"
       stroke-width="9.1559"
       id="path34" />
    <path
       d="m -672.17,548.21 22.053,-38.197"
       fill="none"
       stroke="#000000"
       stroke-width="9.1559"
       id="path36" />
    <path
       d="m -816.28,404.1 38.197,-22.053"
       fill="none"
       stroke="#000000"
       stroke-width="9.1559"
       id="path38" />
    <path
       d="m -816.28,10.384 38.196,22.053"
       fill="none"
       stroke="#000000"
       stroke-width="9.1559"
       id="path40" />
    <path
       d="m -672.17,-133.72 22.053,38.197"
       fill="none"
       stroke="#000000"
       stroke-width="9.1559"
       id="path42" />
    <path
       d="m -672.17,-133.72 22.053,38.197"
       fill="none"
       stroke="#000000"
       stroke-width="9.1559"
       id="path44" />
  </g>
</svg>
